<svg width="31" height="31" viewBox="0 0 31 31" fill="none" xmlns="http://www.w3.org/2000/svg">
<g clip-path="url(#clip0)">
<path d="M30.8241 13.6013L16.9256 1.35475C16.54 1.01505 15.9639 1.01505 15.5783 1.35475L1.67987 13.6013C1.25547 13.9753 1.21296 14.6244 1.58495 15.0512C1.95694 15.4778 2.60272 15.5206 3.02711 15.1466L4.10326 14.1984V29.479C4.10326 30.0463 4.56077 30.5064 5.12521 30.5064H12.8702H19.6338H27.3787C27.9431 30.5064 28.4006 30.0463 28.4006 29.479V14.1985L29.4767 15.1467C29.6708 15.3175 29.9109 15.4015 30.1499 15.4015C30.4341 15.4015 30.7168 15.2831 30.9188 15.0513C31.2911 14.6244 31.2486 13.9753 30.8241 13.6013ZM13.8921 28.4516V19.9881H18.6118V28.4517L13.8921 28.4516ZM26.3569 12.4054V28.4516H20.6559V18.9608C20.6559 18.3934 20.1982 17.9334 19.634 17.9334H12.8703C12.306 17.9334 11.8484 18.3934 11.8484 18.9608V28.4517H6.14723V12.4054C6.14723 12.4028 6.14691 12.4003 6.14691 12.3978L16.252 3.49354L26.3572 12.3977C26.3573 12.4004 26.3569 12.4028 26.3569 12.4054Z" fill="#808080"/>
<path d="M13.9629 10.7267C13.9629 11.2941 14.4204 11.7541 14.9848 11.7541H17.5192C18.0836 11.7541 18.5412 11.2941 18.5412 10.7267C18.5412 10.1592 18.0836 9.69928 17.5192 9.69928H14.9848C14.4205 9.69928 13.9629 10.1592 13.9629 10.7267Z" fill="#808080"/>
</g>
<defs>
<clipPath id="clip0">
<rect width="29.8408" height="30" fill="white" transform="translate(0.734863 0.5)"/>
</clipPath>
</defs>
</svg>
