<svg width="26" height="26" viewBox="0 0 26 26" fill="none" xmlns="http://www.w3.org/2000/svg">
<path d="M13 24.833C13.0096 24.8271 13.0193 24.821 13.0292 24.8148C13.3713 24.6013 13.8641 24.2826 14.4571 23.8667C15.645 23.0337 17.226 21.8177 18.8031 20.2852C21.9898 17.1887 25 12.9582 25 8.09434C25 4.27577 22.1795 1.00007 19.0518 1L13 24.833ZM13 24.833C12.9904 24.8271 12.9807 24.821 12.9708 24.8148C12.6287 24.6013 12.1359 24.2826 11.5429 23.8667C10.355 23.0337 8.77405 21.8177 7.19689 20.2852C4.01021 17.1887 1 12.9582 1 8.09434C1 4.27577 3.82049 1.00007 6.94818 1L13 24.833ZM13 6.06474L12.1104 4.33219C11.0372 2.24193 9.04952 1.00024 6.94828 1L13 6.06474ZM13 6.06474L13.8896 4.33219M13 6.06474L13.8896 4.33219M13.8896 4.33219C14.9628 2.24193 16.9505 1.00024 19.0517 1L13.8896 4.33219Z" stroke="#777777" stroke-width="2"/>
</svg>
