<svg width="51" height="52" viewBox="0 0 51 52" fill="none" xmlns="http://www.w3.org/2000/svg">
<g clip-path="url(#clip0)" filter="url(#filter0_d)">
<path d="M15.5357 10.5657C15.5357 9.43633 14.4658 8.49518 13.1819 8.49518C11.898 8.49518 10.8281 9.39868 10.8281 10.5657C10.8281 11.6951 11.898 12.6362 13.1819 12.6362C14.4658 12.6362 15.5357 11.6951 15.5357 10.5657ZM11.9408 10.5657C11.9408 9.96337 12.4972 9.47397 13.1819 9.47397C13.8666 9.47397 14.423 9.96337 14.423 10.5657C14.423 11.168 13.8666 11.6574 13.1819 11.6574C12.4972 11.6574 11.9408 11.168 11.9408 10.5657Z" fill="#4B4B4B"/>
<path d="M35.9066 15.535L26.6199 10.7916H26.5771H26.5343C26.4915 10.7916 26.4487 10.754 26.4487 10.754H26.4059H26.3631C26.3203 10.754 26.2775 10.754 26.2348 10.754C26.2348 10.754 26.2348 10.754 26.192 10.754H26.1492H26.1064L17.2049 15.1962L15.921 14.5939C16.8625 13.201 17.7612 11.6199 17.7612 10.5658C17.7612 8.34465 15.707 6.5 13.1393 6.5C10.5715 6.5 8.51732 8.30701 8.51732 10.5658C8.51732 10.7916 8.56012 11.0175 8.60291 11.2434L7.57581 10.754C7.40463 10.6787 7.19065 10.6787 7.01947 10.754C6.84829 10.8293 6.7627 11.0175 6.7627 11.1681V32.3628C6.80549 32.5887 6.93388 32.7392 7.10506 32.8145L16.9909 37.0309H17.0337C17.0765 37.0685 17.1621 37.0685 17.2049 37.0685H17.2476C17.2904 37.0685 17.3332 37.0685 17.3332 37.0685H17.376H17.4188H17.4616L26.3203 32.7016L35.393 37.0685C35.5642 37.1438 35.7782 37.1438 35.9494 37.0685C36.1206 36.9932 36.2062 36.805 36.2062 36.6544V15.9491C36.2062 15.7609 36.0778 15.6103 35.9066 15.535ZM13.1821 7.4788C15.1079 7.4788 16.6913 8.8717 16.6913 10.5658C16.6913 11.9963 14.4659 14.9703 13.1821 16.5138C11.8982 15.008 9.6728 12.0716 9.6728 10.5658C9.6728 8.83405 11.2135 7.4788 13.1821 7.4788ZM16.6913 35.7886L7.91818 32.0616V21.8972L16.6913 25.7747V35.7886ZM16.6913 24.683L7.91818 20.8055V11.9963L9.15926 12.561C10.2291 14.7445 12.4117 17.2291 12.7541 17.6056L13.1821 18.095L13.61 17.6056C13.7812 17.4173 14.5515 16.5515 15.3646 15.4221L16.6913 16.0244V24.683ZM17.804 16.0244L24.9081 12.4857L17.804 23.6289V16.0244ZM17.804 25.6242L20.8425 20.8808L25.6356 23.8171L17.804 34.8851V25.6242ZM25.8068 31.8357L18.8311 35.2615L25.8068 25.3606V31.8357ZM25.8068 22.6878L21.356 20.0149L25.8068 13.0504V22.6878ZM35.1363 35.7886L26.9195 31.8357V24.5701L35.1363 29.6146V35.7886ZM35.1363 28.41L26.9195 23.403V12.034L35.1363 16.1374V28.41Z" fill="#4B4B4B"/>
</g>
<defs>
<filter id="filter0_d" x="-1.92285" y="0.5" width="54.8143" height="50.625" filterUnits="userSpaceOnUse" color-interpolation-filters="sRGB">
<feFlood flood-opacity="0" result="BackgroundImageFix"/>
<feColorMatrix in="SourceAlpha" type="matrix" values="0 0 0 0 0 0 0 0 0 0 0 0 0 0 0 0 0 0 127 0"/>
<feOffset dx="4" dy="4"/>
<feGaussianBlur stdDeviation="5"/>
<feColorMatrix type="matrix" values="0 0 0 0 0 0 0 0 0 0 0 0 0 0 0 0 0 0 0.25 0"/>
<feBlend mode="normal" in2="BackgroundImageFix" result="effect1_dropShadow"/>
<feBlend mode="normal" in="SourceGraphic" in2="effect1_dropShadow" result="shape"/>
</filter>
<clipPath id="clip0">
<rect width="34.8143" height="30.625" fill="white" transform="translate(4.07715 6.5)"/>
</clipPath>
</defs>
</svg>
