<svg width="34" height="34" viewBox="0 0 34 34" fill="none" xmlns="http://www.w3.org/2000/svg">
<g clip-path="url(#clip0)">
<path d="M13.3341 17C11.0719 17 9.23096 18.8508 9.23096 21.125C9.23096 23.3992 11.0719 25.25 13.3341 25.25C15.5962 25.25 17.4372 23.3992 17.4372 21.125C17.4372 18.8508 15.5963 17 13.3341 17ZM13.3341 23.875C11.8255 23.875 10.5986 22.6416 10.5986 21.125C10.5986 19.6084 11.8255 18.375 13.3341 18.375C14.8427 18.375 16.0695 19.6084 16.0695 21.125C16.0695 22.6416 14.8427 23.875 13.3341 23.875Z" fill="#5C5C5C"/>
<path d="M24.8502 23.6564L22.6948 21.9583C22.7207 21.6846 22.7371 21.4055 22.7371 21.1264C22.7371 20.8431 22.7207 20.5612 22.6934 20.278L24.8694 18.562C25.3508 18.1522 25.4671 17.4675 25.1525 16.9408L22.8219 12.8914C22.5046 12.3621 21.859 12.1338 21.2655 12.3565L18.7311 13.3809C18.2756 13.0537 17.801 12.7759 17.295 12.5366L16.9106 9.7935C16.7986 9.19963 16.2611 8.75 15.6579 8.75H11.0077C10.4005 8.75 9.86162 9.20923 9.74808 9.84177L9.36925 12.556C8.85912 12.7994 8.37905 13.0813 7.9345 13.3975L5.38512 12.3663C4.81069 12.1504 4.16239 12.3759 3.83959 12.9163L1.52133 16.9491C1.20129 17.484 1.31752 18.1701 1.8181 18.595L3.97359 20.2932C3.94762 20.5668 3.93121 20.8459 3.93121 21.1251C3.93121 21.4083 3.94762 21.6902 3.975 21.9735L1.79759 23.6881C1.31618 24.0978 1.19988 24.7826 1.51447 25.3092L3.84504 29.3586C4.16233 29.8894 4.80793 30.1163 5.40147 29.8935L7.93585 28.8692C8.3913 29.1964 8.86591 29.4742 9.37194 29.7134L9.75629 32.4566C9.86842 33.0506 10.4059 33.5002 11.0091 33.5002H15.6593C16.2665 33.5002 16.8054 33.041 16.9189 32.4084L17.2978 29.6942C17.8079 29.4508 18.288 29.1689 18.7325 28.8527L21.2819 29.8839C21.8577 30.1012 22.506 29.8743 22.8274 29.3339L25.147 25.3025C25.4671 24.7674 25.3508 24.0813 24.8502 23.6564ZM21.6895 28.5651L18.8871 27.4321C18.6614 27.3386 18.4042 27.3771 18.2114 27.527C17.6767 27.9464 17.068 28.3039 16.4033 28.5899C16.1845 28.6848 16.0285 28.8883 15.9957 29.1262L15.6593 32.125H11.0897L10.674 29.1426C10.6398 28.9034 10.4839 28.6985 10.2609 28.605C9.60575 28.33 9.01632 27.9822 8.45688 27.5449C8.26538 27.3951 8.00689 27.3579 7.78121 27.45L4.97879 28.5844L2.73983 24.6945L5.11964 22.819C5.30973 22.6692 5.40686 22.4299 5.37679 22.1893C5.33031 21.8345 5.29883 21.4798 5.29883 21.125C5.29883 20.7716 5.33031 20.4196 5.37544 20.0814C5.40692 19.8408 5.31114 19.5988 5.1197 19.4489L2.73989 17.5734L4.97885 13.6835L7.78128 14.8165C8.00419 14.9086 8.2641 14.8715 8.45695 14.7216C8.9917 14.3023 9.60037 13.9448 10.2651 13.6588C10.4839 13.5639 10.6385 13.3618 10.6726 13.1239L11.0077 10.125H15.5786L15.9944 13.1074C16.0285 13.3466 16.1845 13.5515 16.4074 13.645C17.0626 13.92 17.652 14.2678 18.2115 14.7051C18.4057 14.8564 18.6642 14.8935 18.8871 14.8L21.6896 13.6642L23.9285 17.5541L21.5487 19.4296C21.3586 19.5795 21.2615 19.8187 21.2916 20.0594C21.338 20.4141 21.3695 20.7689 21.3695 21.1236C21.3695 21.477 21.338 21.829 21.2929 22.1673C21.2614 22.4079 21.3572 22.6499 21.5486 22.7998L23.9285 24.6753L21.6895 28.5651Z" fill="#5C5C5C"/>
<path d="M25.6431 4.625C24.1345 4.625 22.9077 5.85837 22.9077 7.37502C22.9077 8.89167 24.1345 10.125 25.6431 10.125C27.1517 10.125 28.3786 8.89167 28.3786 7.37502C28.3786 5.85837 27.1517 4.625 25.6431 4.625ZM25.6431 8.75C24.8895 8.75 24.2755 8.1326 24.2755 7.37502C24.2755 6.61738 24.8896 6.00004 25.6431 6.00004C26.3967 6.00004 27.0108 6.61744 27.0108 7.37502C27.0109 8.1326 26.3968 8.75 25.6431 8.75Z" fill="#5C5C5C"/>
<path d="M31.9811 8.49425C31.9701 8.48465 31.9578 8.47498 31.9469 8.46537L30.9307 7.67337C30.9389 7.57573 30.943 7.47673 30.943 7.37502C30.943 7.2719 30.9402 7.17154 30.9348 7.06977L31.9701 6.25302C32.323 5.93675 32.4132 5.42802 32.1807 5.00037L30.958 2.87465C30.7296 2.45254 30.2249 2.26002 29.7202 2.4305L28.5412 2.90765C28.3703 2.7935 28.1993 2.69315 28.0256 2.60652L27.8505 1.391C27.811 0.891875 27.3815 0.5 26.874 0.5H24.4122C23.9308 0.5 23.5095 0.858875 23.4261 1.3511L23.2455 2.61748C23.065 2.70958 22.894 2.80723 22.734 2.91171L21.5304 2.42496C21.0845 2.26273 20.5963 2.43044 20.3228 2.86221L19.085 5.01688C18.8483 5.45135 18.9482 5.96975 19.3366 6.28325L20.3501 7.08073C20.346 7.17696 20.3432 7.2746 20.3432 7.37496C20.3432 7.47531 20.346 7.57296 20.3501 7.6706L19.3051 8.49425C18.9509 8.81052 18.8607 9.3206 19.0931 9.7496L20.3158 11.8753C20.5456 12.2974 21.0517 12.4913 21.5536 12.3195L22.7326 11.8423C22.9036 11.9565 23.0745 12.0568 23.2482 12.1435L23.4301 13.4167C23.5108 13.8994 23.9238 14.25 24.4121 14.25H26.874C27.354 14.25 27.7767 13.8911 27.8601 13.4002L28.0406 12.1325C28.2211 12.0417 28.3894 11.9441 28.5453 11.841L29.7544 12.3277C30.1975 12.4886 30.6899 12.3208 30.9634 11.8905L32.2026 9.7331C32.4256 9.31925 32.3353 8.8091 31.9811 8.49425ZM29.9391 10.9211L28.7027 10.4247C28.4743 10.334 28.2158 10.3711 28.0216 10.5265C27.7877 10.7149 27.4923 10.8868 27.1422 11.0394C26.9247 11.1343 26.7715 11.335 26.7373 11.5715L26.5513 12.875H24.7336L24.549 11.5701C24.5134 11.324 24.3479 11.1164 24.1182 11.027C23.8255 10.9143 23.5383 10.7465 23.2414 10.5169C23.0486 10.3684 22.7942 10.334 22.5685 10.4247L21.3471 10.9211L20.4404 9.34535L21.4853 8.52313C21.6754 8.37327 21.7725 8.13538 21.7424 7.89612C21.7206 7.72565 21.711 7.5551 21.711 7.37502C21.711 7.19494 21.7205 7.0244 21.741 6.85392C21.7711 6.61331 21.674 6.37542 21.4839 6.22692L20.4389 5.40469L21.3444 3.82894L22.5671 4.32394C22.7914 4.41604 23.0472 4.37892 23.24 4.23184C23.4917 4.03796 23.7953 3.86194 24.1427 3.71073C24.3602 3.61586 24.5133 3.41509 24.5476 3.17861L24.7336 1.87511H26.5389L26.7263 3.18138C26.7605 3.42753 26.926 3.63513 27.1558 3.72453C27.4485 3.83725 27.7357 4.00503 28.0325 4.23467C28.224 4.38317 28.4784 4.41894 28.7054 4.32678L29.9268 3.83042L30.8336 5.40617L29.7887 6.2284C29.5876 6.38515 29.4905 6.64225 29.537 6.8953C29.5671 7.05205 29.5753 7.2088 29.5753 7.37515C29.5753 7.5553 29.552 7.72578 29.5302 7.8949C29.5001 8.1355 29.5986 8.37475 29.7887 8.52325L30.8432 9.34548L29.9391 10.9211Z" fill="#5C5C5C"/>
</g>
<defs>
<clipPath id="clip0">
<rect width="32.8249" height="33" fill="white" transform="translate(0.418945 0.5)"/>
</clipPath>
</defs>
</svg>
