<svg width="26" height="25" viewBox="0 0 26 25" fill="none" xmlns="http://www.w3.org/2000/svg">
<g clip-path="url(#clip0)">
<path d="M21.6577 7.8125H19.314V9.37502H20.8765V23.4375H5.25148V9.37502H6.814V7.8125H4.47022C4.03838 7.8125 3.68896 8.16192 3.68896 8.59376V24.2187C3.68896 24.6506 4.03838 25 4.47022 25H21.6577C22.0896 25 22.439 24.6506 22.439 24.2187V8.59376C22.439 8.16192 22.0896 7.8125 21.6577 7.8125Z" fill="#777777"/>
<path d="M12.2828 2.99072V14.0625H13.8453V2.99072L17.1992 6.3446L18.304 5.23987L13.0641 0L7.82422 5.23987L8.92895 6.3446L12.2828 2.99072Z" fill="#777777"/>
</g>
<defs>
<clipPath id="clip0">
<rect width="25" height="25" fill="white" transform="translate(0.563965)"/>
</clipPath>
</defs>
</svg>
